#!OML:ASF E:\Steps\Project 1\Capture day 1\Session 2\Subject.ASF
:FULLY-SPECIFIED
:DEGREES
1009
root -1.17325 17.9544 20.7019 -155.601 -0.953142 178.748
lowerback -25.0142 -2.88773 -7.98021
upperback -0.400427 -1.95548 0.883324
thorax 13.9303 -1.61594 4.86639
lowerneck 0.670748 -5.80307 -1.19293
upperneck 22.7998 -6.28504 1.82422
head 6.94331 -2.20835 0.525342
rclavicle -1.09332e-014 -6.16232e-015
rhumerus -39.4132 -18.407 -75.8707
rradius 35.2273
rwrist 0.341705
rhand -10.4804 -59.6209
rfingers 7.12502
rthumb 15.521 -89.018
lclavicle -1.09332e-014 -6.16232e-015
lhumerus -31.3849 5.41828 79.8662
lradius 24.1067
lwrist -3.67399
lhand -23.0969 -13.3577
lfingers 7.12502
lthumb 3.34951 16.5957
rfemur -26.5241 5.69825 19.8063
rtibia 16.8614
rfoot -21.8867 -3.43164
rtoes -14.7344
lfemur -24.3929 -10.0031 -21.0657
ltibia 13.5245
lfoot -9.91186 -1.8744
ltoes -7.04148
1010
root -1.16575 17.9531 20.6925 -155.562 -0.710378 178.74
lowerback -25.1884 -2.88126 -8.13432
upperback -0.377763 -1.88453 0.855103
thorax 14.0481 -1.59951 4.94612
lowerneck 0.929103 -5.87745 -1.24263
upperneck 22.3849 -6.44829 1.95764
head 6.77267 -2.30624 0.573591
rclavicle -3.42904e-015 -3.57812e-015
rhumerus -39.4173 -18.4113 -75.9221
rradius 35.0695
rwrist -0.280789
rhand -10.5821 -59.7121
rfingers 7.12502
rthumb 15.423 -89.1168
lclavicle -3.42904e-015 -3.57812e-015
lhumerus -31.3858 5.53841 79.7581
lradius 24.0684
lwrist -3.95742
lhand -22.9585 -13.1766
lfingers 7.12502
lthumb 3.48318 16.7747
rfemur -27.119 5.57809 19.8104
rtibia 17.9708
rfoot -22.3359 -3.08824
rtoes -15.5241
lfemur -24.357 -9.84636 -21.116
ltibia 13.5018
lfoot -10.0178 -1.77832
ltoes -8.08949
1011
root -1.1559 17.9567 20.6905 -155.683 -0.69581 178.815
lowerback -24.9955 -2.91219 -8.18348
upperback -0.376276 -1.92616 0.867221
thorax 13.9512 -1.61712 4.97595
lowerneck 0.94255 -5.87601 -1.31986
upperneck 22.4095 -6.46517 2.09278
head 6.78612 -2.30895 0.629002
rclavicle -3.67752e-015 -4.37326e-015
rhumerus -39.4904 -18.3581 -75.9736
rradius 35.109
rwrist -0.335324
rhand -10.0809 -60.4975
rfingers 7.12502
rthumb 15.9058 -89.8643
lclavicle -3.67752e-015 -4.37326e-015
lhumerus -31.3511 5.6913 79.6312
lradius 23.8342
lwrist -3.94897
lhand -22.9183 -13.5316
lfingers 7.12502
lthumb 3.52197 16.4191
rfemur -27.6413 5.40123 19.9696
rtibia 19.1549
rfoot -22.7602 -3.04707
rtoes -17.4493
lfemur -24.2396 -9.79976 -21.0097
ltibia 13.5259
lfoot -10.0338 -1.7767
ltoes -7.75093
1012
root -1.1465 17.9528 20.6904 -155.554 -0.5408 178.976
lowerback -25.0264 -2.8912 -8.17215
upperback -0.460661 -1.91878 0.911964
thorax 13.8673 -1.61372 5.02397
lowerneck 0.85092 -5.86267 -1.47072
upperneck 22.57 -6.4675 2.30931
head 6.8672 -2.29657 0.72087
rclavicle -6.85807e-015 -9.93923e-016
rhumerus -39.6502 -18.3169 -75.9305
rradius 35.2179
rwrist -0.565991
rhand -10.2289 -59.8137
rfingers 7.12502
rthumb 15.7632 -89.1918
lclavicle -6.85807e-015 -9.93923e-016
lhumerus -31.403 5.78417 79.6041
lradius 23.6913
lwrist -4.0262
lhand -22.9336 -13.6224
lfingers 7.12502
lthumb 3.50718 16.3285
rfemur -28.5452 5.12855 20.2084
rtibia 20.457
rfoot -22.9518 -2.99214
rtoes -19.7474
lfemur -24.4286 -9.843 -20.7312
ltibia 13.5783
lfoot -10.0531 -1.55076
ltoes -6.38213
1013
root -1.13913 17.9596 20.6915 -155.683 -0.417549 179.04
lowerback -24.7819 -2.90103 -8.27769
upperback -0.458286 -1.92546 0.969019
thorax 13.7414 -1.61966 5.15268
lowerneck 1.03634 -5.81368 -1.57988
upperneck 22.2636 -6.45231 2.4927
head 6.74511 -2.30208 0.803283
rclavicle 8.34896e-015 1.94809e-014
rhumerus -39.6937 -18.3432 -75.7816
rradius 35.3203
rwrist -0.593135
rhand -9.84121 -58.7431
rfingers 7.12502
rthumb 16.1366 -88.0914
lclavicle 8.34896e-015 1.94809e-014
lhumerus -31.4768 5.82605 79.6833
lradius 23.6711
lwrist -4.11629
lhand -23.0535 -13.3729
lfingers 7.12502
lthumb 3.3914 16.5799
rfemur -29.1206 4.62931 20.3896
rtibia 21.7795
rfoot -23.2374 -2.66193
rtoes -21.5591
lfemur -24.3134 -9.97134 -20.6204
ltibia 13.6671
lfoot -10.1956 -1.30522
ltoes -5.76863
1014
root -1.13334 17.9623 20.6905 -155.69 -0.248314 179.131
lowerback -24.7877 -2.88131 -8.28353
upperback -0.42721 -1.89529 0.987874
thorax 13.778 -1.60834 5.18917
lowerneck 1.14674 -5.76257 -1.5495
upperneck 22.0236 -6.40844 2.50696
head 6.64641 -2.29273 0.807889
rclavicle -7.45443e-016 -1.59028e-015
rhumerus -39.5509 -18.4695 -75.7397
rradius 35.2098
rwrist -0.64249
rhand -10.7163 -56.9002
rfingers 7.12502
rthumb 15.2938 -86.3147
lclavicle -7.45443e-016 -1.59028e-015
lhumerus -31.4657 5.85139 79.6847
lradius 23.664
lwrist -4.05129
lhand -22.9435 -13.3049
lfingers 7.12502
lthumb 3.49763 16.6461
rfemur -29.8499 4.44697 20.4699
rtibia 23.1436
rfoot -23.5661 -2.18729
rtoes -21.8657
lfemur -24.3034 -10.0275 -20.4947
ltibia 13.703
lfoot -10.2466 -1.10622
ltoes -5.58522
1015
root -1.1252 17.9641 20.6898 -155.691 -0.037254 179.244
lowerback -24.824 -2.8328 -8.24958
upperback -0.377466 -1.82773 0.957311
thorax 13.8445 -1.5765 5.15849
lowerneck 1.08655 -5.72477 -1.4466
upperneck 21.9953 -6.38023 2.55367
head 6.64457 -2.27107 0.8057
rclavicle -4.02539e-015 2.18663e-015
rhumerus -39.4532 -18.8205 -75.6483
rradius 35.2194
rwrist 0.35102
rhand -10.3436 -56.4814
rfingers 7.12502
rthumb 15.6528 -85.8682
lclavicle -4.02539e-015 2.18663e-015
lhumerus -31.4418 5.68947 79.6173
lradius 23.6894
lwrist -3.80312
lhand -22.7187 -13.4593
lfingers 7.12502
lthumb 3.71479 16.4881
rfemur -30.6535 4.23655 20.5816
rtibia 24.6023
rfoot -23.9417 -1.73646
rtoes -22.7452
lfemur -24.2921 -9.93426 -20.3586
ltibia 13.6715
lfoot -10.2873 -0.869215
ltoes -6.04567
1016
root -1.11826 17.9671 20.6892 -155.727 0.227659 179.316
lowerback -24.7932 -3.16407 -8.05647
upperback -0.347826 -1.64365 0.893605
thorax 13.8627 -1.19979 5.10715
lowerneck 1.02398 -5.71794 -1.24796
upperneck 22.0506 -6.37645 2.52943
head 6.66516 -2.25258 0.763775
rclavicle -2.03754e-015 8.34896e-015
rhumerus -39.486 -18.9957 -75.6684
rradius 35.1725
rwrist 0.659225
rhand -10.3443 -55.886
rfingers 7.12502
rthumb 15.652 -85.2728
lclavicle -2.03754e-015 8.34896e-015
lhumerus -31.4685 5.59644 79.4765
lradius 23.6654
lwrist -3.7193
lhand -22.5343 -13.6397
lfingers 7.12502
lthumb 3.89286 16.3045
rfemur -31.5675 3.62903 20.7638
rtibia 26.2944
rfoot -24.2964 -1.32225
rtoes -26.358
lfemur -24.2071 -9.85744 -20.2867
ltibia 13.6071
lfoot -10.4204 -0.573712
ltoes -5.69216
1017
root -1.11389 17.9716 20.6888 -155.826 0.428847 179.367
lowerback -24.5667 -3.14154 -8.04214
upperback -0.389356 -1.6378 0.868011
thorax 13.6843 -1.1872 5.07286
lowerneck 0.963981 -5.75651 -1.15957
upperneck 22.2816 -6.39173 2.40326
head 6.74358 -2.24855 0.706479
rclavicle -7.85199e-015 1.55052e-014
rhumerus -39.6177 -18.9116 -75.7286
rradius 35.1894
rwrist 0.649461
rhand -10.3932 -56.461
rfingers 7.12502
rthumb 15.6049 -85.8515
lclavicle -7.85199e-015 1.55052e-014
lhumerus -31.673 5.69448 79.3453
lradius 23.6525
lwrist -3.90081
lhand -22.543 -13.7103
lfingers 7.12502
lthumb 3.88439 16.234
rfemur -32.3567 2.97245 20.9267
rtibia 27.795
rfoot -24.4924 -1.07933
rtoes -30.7993
lfemur -24.0309 -9.85604 -20.246
ltibia 13.5258
lfoot -10.442 -0.410533
ltoes -4.78019
1018
root -1.10949 17.9778 20.6929 -155.943 0.534958 179.443
lowerback -24.1267 -3.19178 -8.02149
upperback -0.499338 -1.7632 0.930542
thorax 13.329 -1.22865 5.09175
lowerneck 0.889405 -5.78206 -1.31858
upperneck 22.52 -6.39552 2.36067
head 6.83863 -2.2546 0.716758
rclavicle -7.60351e-015 -1.15295e-014
rhumerus -39.7484 -18.5793 -75.7936
rradius 35.2766
rwrist 0.387481
rhand -10.7533 -56.9489
rfingers 7.12502
rthumb 15.2581 -86.3662
lclavicle -7.60351e-015 -1.15295e-014
lhumerus -32.0425 5.92917 79.2676
lradius 23.6757
lwrist -4.06487
lhand -22.7526 -13.6369
lfingers 7.12502
lthumb 3.68204 16.3111
rfemur -33.0491 2.4895 21.0235
rtibia 29.1533
rfoot -24.7491 -0.709608
rtoes -33.2546
lfemur -23.9241 -9.91294 -20.1354
ltibia 13.5349
lfoot -10.3849 -0.224666
ltoes -4.54042
